<?xml version="1.0" encoding="UTF-8"?>
<svg version="1.1" xmlns="http://www.w3.org/2000/svg" width="1024" height="1024">
<path d="M0 0 C337.92 0 675.84 0 1024 0 C1024 337.92 1024 675.84 1024 1024 C686.08 1024 348.16 1024 0 1024 C0 686.08 0 348.16 0 0 Z " fill="#FCFCFC" transform="translate(0,0)"/>
<path d="M0 0 C0.73516846 0.37943756 1.47033691 0.75887512 2.2277832 1.14981079 C3.82970806 1.97754268 5.43015622 2.80813722 7.02929688 3.64123535 C9.61568274 4.98864368 12.20573367 6.32875374 14.796875 7.66699219 C18.49587234 9.57767275 22.19357797 11.49082222 25.890625 13.40527344 C34.16886228 17.6874999 42.47038149 21.92411669 50.77172852 26.16131592 C53.59231314 27.60115639 56.41243827 29.04189297 59.23242188 30.48291016 C68.91449731 35.43040899 78.59777444 40.37555474 88.28125 45.3203125 C89.25239243 45.81621887 90.22353485 46.31212524 91.22410583 46.82305908 C96.12977528 49.32802771 101.03559368 51.83270399 105.94165039 54.33691406 C115.76495276 59.35144027 125.5859261 64.37044567 135.40234375 69.3984375 C139.26804662 71.3779609 143.13393614 73.35711922 147 75.3359375 C147.9368866 75.81549896 148.87377319 76.29506042 149.83905029 76.78915405 C162.5806235 83.30844319 175.35509063 89.75676772 188.16815186 96.13427734 C198.71463331 101.38539445 209.17584057 106.77570114 219.5625 112.3359375 C221.05449084 113.1305777 222.54667957 113.92484642 224.0390625 114.71875 C227.54948717 116.58632692 231.05590012 118.46112172 234.5625 120.3359375 C234.5625 128.9159375 234.5625 137.4959375 234.5625 146.3359375 C187.76619038 146.35299046 140.96988059 146.36896896 94.17356873 146.37828064 C93.13550411 146.37848773 93.13550411 146.37848773 92.07646849 146.37869899 C77.03833591 146.38169155 62.00020329 146.38446178 46.96207062 146.38700283 C39.58791361 146.38825022 32.21375661 146.38954677 24.83959961 146.39086914 C24.10576261 146.3909999 23.3719256 146.39113066 22.61585111 146.39126538 C-1.19154881 146.39553057 -24.99894636 146.40304474 -48.80634485 146.41223472 C-73.26123317 146.42165755 -97.71612019 146.42782067 -122.1710103 146.42985249 C-125.62109267 146.43014067 -129.07117504 146.4304663 -132.5212574 146.43081474 C-133.20031686 146.43088217 -133.87937633 146.43094959 -134.57901335 146.43101906 C-145.53225204 146.4322031 -156.48548668 146.4368474 -167.43872372 146.44276953 C-178.4369383 146.44864273 -189.43514979 146.45082776 -200.43336611 146.44943888 C-206.39790449 146.44879516 -212.36243096 146.44981675 -218.32696724 146.45514297 C-223.77775497 146.4599752 -229.22852267 146.46027733 -234.67931128 146.45683639 C-236.66047385 146.45641053 -238.64163761 146.45770774 -240.62279778 146.46082068 C-243.29733141 146.46478172 -245.97179093 146.46270274 -248.6463232 146.45898533 C-249.4314298 146.46161234 -250.2165364 146.46423936 -251.02543411 146.46694598 C-256.3233542 146.4500833 -256.3233542 146.4500833 -257.4375 145.3359375 C-257.52487645 143.48224139 -257.54448153 141.62526209 -257.53515625 139.76953125 C-257.53265869 138.75689209 -257.53016113 137.74425293 -257.52758789 136.70092773 C-257.51848389 135.40485596 -257.50937988 134.10878418 -257.5 132.7734375 C-257.48851196 130.55477061 -257.47738568 128.33610183 -257.46655273 126.11743164 C-257.45686849 124.19026693 -257.44718424 122.26310221 -257.4375 120.3359375 C-241.78488761 112.09351208 -226.03098065 104.07942669 -210.1875 96.2109375 C-198.12290969 90.21890878 -186.08425472 84.20084437 -174.18377686 77.88803101 C-167.03427494 74.10198539 -159.80861574 70.47964056 -152.55993652 66.88800049 C-141.97995525 61.64364731 -131.43211833 56.35708049 -121.01171875 50.80078125 C-114.27743209 47.21975404 -107.45264541 43.82958565 -100.62158203 40.43774414 C-94.7255555 37.50213269 -88.87831572 34.48963768 -83.0625 31.3984375 C-74.8952268 27.05827364 -66.63610256 22.91877709 -58.35351562 18.80371094 C-52.04708318 15.6626147 -45.78646944 12.44969519 -39.5625 9.1484375 C-37.29079163 7.9497087 -35.01856528 6.75196886 -32.74609375 5.5546875 C-31.14824717 4.71115428 -29.55199446 3.86459754 -27.95703125 3.015625 C-25.49928883 1.71244995 -23.03229295 0.42859591 -20.5625 -0.8515625 C-19.44705811 -1.45037231 -19.44705811 -1.45037231 -18.30908203 -2.0612793 C-17.61153809 -2.41875244 -16.91399414 -2.77622559 -16.1953125 -3.14453125 C-15.5883252 -3.46317139 -14.98133789 -3.78181152 -14.35595703 -4.11010742 C-9.1799628 -5.6046774 -4.46660049 -2.34486008 0 0 Z " fill="#010101" transform="translate(523.4375,251.6640625)"/>
<path d="M0 0 C24.75 0 49.5 0 75 0 C75.95815489 21.85484455 75.95815489 21.85484455 76.37304688 31.4609375 C76.65179878 37.91448133 76.93119989 44.3679903 77.21557617 50.82128906 C78.24254417 74.14666035 79.15297632 97.46263172 79.67918396 120.80503845 C79.91805366 131.32748727 80.27077613 141.83225931 80.87335205 152.34109497 C81.10497054 156.4036833 81.31323318 160.46750653 81.5234375 164.53125 C81.56520111 165.33413956 81.60696472 166.13702911 81.6499939 166.96424866 C82.05339208 174.82789965 82.36309549 182.69296377 82.625 190.5625 C82.66496094 191.69437744 82.70492187 192.82625488 82.74609375 193.99243164 C83.09948096 205.33926966 83 216.62956566 83 228 C52.97 228 22.94 228 -8 228 C-8 219.37006301 -7.91441616 210.80141845 -7.58862305 202.18579102 C-7.54462026 200.97156495 -7.50061747 199.75733889 -7.45528126 198.50631809 C-7.33488609 195.19751071 -7.21239135 191.88879421 -7.08890915 188.58010149 C-6.95745076 185.04425651 -6.82869843 181.50831283 -6.69958496 177.97238159 C-6.45091719 171.17437991 -6.19967721 164.37647574 -5.94747245 157.57860446 C-5.74513956 152.12324978 -5.54390821 146.66785543 -5.34341431 141.21243286 C-5.31502364 140.43997964 -5.28663297 139.66752643 -5.25738198 138.87166554 C-5.22898497 138.09903793 -5.20058797 137.32641032 -5.17133045 136.53036976 C-4.13061306 108.21494787 -3.07924096 79.89991974 -2 51.5859375 C-1.96627289 50.70107288 -1.93254578 49.81620827 -1.89779663 48.90452957 C-1.27559214 32.60261246 -0.63598849 16.30138918 0 0 Z " fill="#060606" transform="translate(648,460)"/>
<path d="M0 0 C24.75 0 49.5 0 75 0 C75.5940189 10.09832133 76.16623234 20.15052155 76.46484375 30.25390625 C76.5211068 32.05292641 76.5211068 32.05292641 76.57850647 33.88829041 C76.65851296 36.45039977 76.73754915 39.0125396 76.81567383 41.57470703 C77.00496949 47.77101022 77.20110661 53.96709424 77.39757156 60.16317368 C77.44250056 61.58037979 77.48735861 62.99758815 77.53214645 64.41479874 C77.95007498 77.63178554 78.40196676 90.84741779 78.8765564 104.0625 C79.00027956 107.5077848 79.12283221 110.95311005 79.24536133 114.3984375 C79.61734897 124.79593666 80.00278437 135.19262673 80.42633057 145.58816528 C80.61753096 150.29008216 80.80338723 154.99220576 80.98925781 159.69433594 C81.11727086 162.87071727 81.25367093 166.04665049 81.390625 169.22265625 C82.16699267 188.85724499 82 208.28961917 82 228 C52.3 228 22.6 228 -8 228 C-8 202.72737636 -8 202.72737636 -7.57275391 191.875 C-7.52719864 190.63204163 -7.48164337 189.38908325 -7.43470764 188.10845947 C-7.31147191 184.76727565 -7.18470002 181.42626483 -7.05621767 178.08528137 C-6.91933898 174.50195353 -6.78728568 170.91844725 -6.65463257 167.33496094 C-6.40173979 160.52211849 -6.14474396 153.70943759 -5.88617074 146.89680862 C-5.59983084 139.34784365 -5.31787316 131.79871736 -5.03641748 124.24956894 C-4.6785903 114.65247408 -4.31997192 105.05541059 -3.95733643 95.45849609 C-3.43715666 81.68879984 -2.92181983 67.91899216 -2.42480469 54.1484375 C-2.33461182 51.66243391 -2.24439235 49.17643128 -2.15414429 46.69042969 C-1.98905 42.14167654 -1.82648747 37.59284314 -1.66543579 33.04394531 C-1.5913562 31.0006471 -1.51717403 28.9573526 -1.44287109 26.9140625 C-1.39750528 25.59986832 -1.39750528 25.59986832 -1.35122299 24.25912476 C-1.05237795 16.15598715 -0.5064396 8.10303358 0 0 Z " fill="#060606" transform="translate(475,460)"/>
<path d="M0 0 C24.75 0 49.5 0 75 0 C76.15424229 30.18787526 77.2787521 60.37661718 78.36459351 90.5670166 C78.49449525 94.17812453 78.62506023 97.78920742 78.7562561 101.40026855 C79.48225919 121.39788787 80.16205371 141.39475245 80.66822815 161.39930725 C80.85417859 168.63059471 81.12633232 175.84183885 81.5625 183.0625 C82.22135323 198.02788051 82 213.02012345 82 228 C52.3 228 22.6 228 -8 228 C-8 211.86187321 -7.89945585 195.86556985 -7.1953125 179.765625 C-7.11052721 177.72927031 -7.0262941 175.69289257 -6.94256592 173.65649414 C-6.76609755 169.38403194 -6.58670578 165.11170843 -6.40472412 160.83947754 C-5.92906308 149.66434228 -5.47263927 138.48841061 -5.015625 127.3125 C-4.97035046 126.20935707 -4.92507591 125.10621414 -4.87842941 123.96964264 C-4.10377586 105.06585198 -3.44253705 86.16103539 -2.875 67.25 C-2.19873493 44.81167287 -1.21641132 22.41672294 0 0 Z " fill="#050505" transform="translate(302,460)"/>
<path d="M0 0 C165 0 330 0 500 0 C500 6.6 500 13.2 500 20 C335 20 170 20 0 20 C0 13.4 0 6.8 0 0 Z " fill="#000000" transform="translate(262,728)"/>
<path d="M0 0 C35.31 0 70.62 0 107 0 C107 2.64 107 5.28 107 8 C107.70125 8.0825 108.4025 8.165 109.125 8.25 C115.57096881 9.93155708 118.75576512 13.59467193 122.01953125 19.09765625 C124.51546087 23.94035635 124.68498484 28.67405044 124 34 C121.58763741 40.44631331 118.0158249 45.1376866 111.68359375 48.07421875 C107.15213953 49.63747151 102.72983424 49.56340673 98 49 C93.54853749 46.81473658 90.81114855 44.0605479 88 40 C86.63387556 35.90162668 86.24127506 32.27580501 87 28 C89.4050758 23.84008062 92.4881473 20.75036093 97 19 C101.69248328 18.67261745 105.15986038 19.43419169 109.0625 22.0625 C111.77433026 26.17398459 111.69573649 28.12984459 111 33 C109.375 35.5 109.375 35.5 107 37 C103.9375 37.5 103.9375 37.5 101 37 C99.25 35 99.25 35 98 33 C97.34 33 96.68 33 96 33 C96.36197896 35.62434747 96.82656057 36.82013689 98.6875 38.75 C101.76859839 40.41545859 103.53175493 40.48555431 107 40 C111.22481746 37.7241177 111.22481746 37.7241177 114 34 C114.51037087 29.94619711 114.89274541 25.8225342 113.05859375 22.078125 C109.90002017 18.07792524 106.86832629 16.34058049 101.89453125 15.75 C96.40040278 15.45550735 93.29226301 16.30665741 89 20 C84.47136805 25.14060924 83.60007917 28.21203316 83.64453125 34.96875 C84.28753919 40.45198254 86.72681297 45.74278384 90.66796875 49.65625 C92 51 92 51 92 53 C66.59 53 41.18 53 15 53 C16.77687078 49.44625844 18.72805913 46.22754064 20.87890625 42.90234375 C23.78703456 37.96764518 23.57253648 32.55042314 23 27 C20.81473658 22.54853749 18.0605479 19.81114855 14 17 C9.93220306 15.64406769 6.25331741 15.46924415 2 16 C-1.985809 18.06671578 -4.61907065 20.21370834 -7 24 C-7.87667144 28.85723364 -7.71427993 32.83334278 -5.125 37.0625 C-2.37440779 39.5703929 -1.44867818 39.95767187 2.3125 40.3125 C6.57090925 39.95161786 8.09862473 39.07721619 11 36 C11 35.01 11 34.02 11 33 C10.34 33 9.68 33 9 33 C8.443125 33.680625 7.88625 34.36125 7.3125 35.0625 C5 37 5 37 1.4375 37.0625 C-2 36 -2 36 -4 33.8125 C-5.25890684 30.2718245 -5.18852296 28.56556888 -4 25 C-0.52867739 20.99462776 1.41353774 19.18822434 6.6875 18.5625 C11.15205663 18.60316081 13.35249501 20.34787913 16.5546875 23.296875 C19.02498094 26.20781538 19.93645426 28.44927026 20.375 32.25 C19.83078037 37.69219629 18.30656574 41.75313361 14.33984375 45.6171875 C9.65257417 49.02436087 5.34315774 49.71119894 -0.38671875 49.41796875 C-5.67357364 48.57238807 -9.22715392 46.07407684 -12.8125 42.125 C-16.79036929 36.44232958 -18.0305659 30.83023994 -17 24 C-14.49068158 15.92389267 -10.23896114 12.01260767 -3 8 C-2.01 7.34 -1.02 6.68 0 6 C0 4.02 0 2.04 0 0 Z " fill="#080808" transform="translate(459,402)"/>
<path d="M0 0 C35.31 0 70.62 0 107 0 C106.67 2.64 106.34 5.28 106 8 C106.825 8.020625 107.65 8.04125 108.5 8.0625 C114.16095271 9.57882662 117.98366839 13.22331988 121.3984375 17.92578125 C124.17481472 22.83859059 124.82375768 27.43461273 124 33 C121.97556389 39.28640688 118.78922713 43.9591021 113.4375 47.875 C107.58674028 49.78979409 101.25285903 50.55639188 95.55078125 47.828125 C91.84816644 45.17264525 88.61195798 42.33213708 87 38 C86.31126849 33.30965121 86.52103728 29.97634707 88.625 25.6875 C94.32614315 19.23620644 94.32614315 19.23620644 99.2109375 18.8046875 C103.30110136 19.03569343 105.6253927 19.74771345 109.0625 22.0625 C111.77433026 26.17398459 111.69573649 28.12984459 111 33 C109.4375 35.5625 109.4375 35.5625 107 37 C103.25 36.75 103.25 36.75 100 36 C99.505 34.02 99.505 34.02 99 32 C98.01 32 97.02 32 96 32 C97.26946514 36.82442184 97.26946514 36.82442184 101 40 C105.02491565 40.53665542 106.7363781 40.14921994 110.3125 38.125 C113.10227571 35.91913083 113.84137583 35.25992912 114.2734375 31.828125 C114.53353449 25.73200584 114.53353449 25.73200584 111.75 20.5 C107.07274629 16.24795117 103.6846551 15.5464782 97.46875 15.68359375 C92.54322326 16.3148717 89.85405143 19.03053622 86.6875 22.625 C83.1986608 27.53521814 83.30843794 32.10272352 84 38 C85.53406493 42.3119663 87.39176891 46.40306796 90.66796875 49.65625 C92 51 92 51 92 53 C66.59 53 41.18 53 15 53 C16.59211892 49.81576215 17.97010357 47.77433826 20.125 45.0625 C24.00074186 39.32488214 24.03581108 33.7106393 23 27 C20.6156649 21.96640367 17.00006427 18.50003213 12 16 C6.9888842 15.45021931 3.10303507 15.43845487 -1.4375 17.75 C-4.44890078 20.39415679 -6.68425956 22.38183027 -7.46875 26.40234375 C-7.55880981 32.18505361 -7.55880981 32.18505361 -4.5625 37.0625 C-3.2940625 38.0215625 -3.2940625 38.0215625 -2 39 C-1.67 39.33 -1.34 39.66 -1 40 C3.96824879 40.3972731 3.96824879 40.3972731 8.4375 38.5 C8.953125 38.005 9.46875 37.51 10 37 C9.67 35.68 9.34 34.36 9 33 C8.443125 33.66 7.88625 34.32 7.3125 35 C5 37 5 37 2.5 37.5 C-0.94277758 36.81144448 -2.03221339 35.91523942 -4 33 C-4.45468446 29.81720877 -4.71154438 28.01359974 -4 25 C-0.70304543 20.92218777 1.45527233 19.21306589 6.625 18.5 C11.50539259 18.52676632 13.99030649 20.96159725 17.43359375 24.17578125 C20.19298116 27.38933217 20.34928551 30.74518992 20.2734375 34.87890625 C19.62177178 39.93397036 16.77480611 43.6518497 13 46.9375 C8.08911505 50.13380874 2.62208904 49.81845378 -3 49 C-8.41217246 47.24178063 -11.82274126 43.53894106 -15 39 C-17.53373215 33.57057397 -18.07148603 27.66204085 -16.3828125 21.890625 C-13.95624126 16.3503119 -10.02725896 12.31298291 -5 9 C-1.5 8.0625 -1.5 8.0625 1 8 C0.67 7.34 0.34 6.68 0 6 C0 4.02 0 2.04 0 0 Z " fill="#080808" transform="translate(286,402)"/>
<path d="M0 0 C35.31 0 70.62 0 107 0 C106.67 2.64 106.34 5.28 106 8 C106.825 8.020625 107.65 8.04125 108.5 8.0625 C114.16196686 9.57909827 117.94503915 13.22178477 121.3984375 17.890625 C124.34760981 23.03598946 125.04441295 28.17469676 124 34 C121.53874053 40.44567541 118.0442699 45.12449541 111.68359375 48.07421875 C107.15213953 49.63747151 102.72983424 49.56340673 98 49 C93.54853749 46.81473658 90.81114855 44.0605479 88 40 C86.63387556 35.90162668 86.24127506 32.27580501 87 28 C89.44399363 23.77276672 92.49466029 20.89651652 97 19 C100.99090581 18.47944707 102.69523363 18.83003414 106.25 20.8125 C109.39909754 23.31746395 110.82639493 24.85916668 111.4375 28.875 C110.84664231 33.09541211 109.35694833 34.46363904 106 37 C103.375 37.5 103.375 37.5 101 37 C99.1875 35.625 99.1875 35.625 98 34 C98 33.34 98 32.68 98 32 C97.01 32.495 97.01 32.495 96 33 C96.3457635 35.50678535 96.87496604 36.84891729 98.5 38.8125 C102.412885 40.67112038 105.90039509 40.20355374 110 39 C112.78209076 36.82861209 113.76263848 35.3567085 114.37109375 31.87890625 C114.59739839 27.81228042 114.16249232 25.33748406 112.375 21.625 C108.59255186 17.44439943 105.14051334 15.85657893 99.5625 15.5625 C94.89380715 15.75113405 91.5399416 16.92777089 88 20 C83.83082147 25.13129666 83.38407465 29.51126181 83.60546875 36.0546875 C84.26275707 40.9615726 85.98584638 45.12044376 89.63671875 48.52734375 C91 50 91 50 91 53 C66.25 53 41.5 53 16 53 C16.95460167 49.18159332 17.86652196 47.61486247 20.0625 44.5 C23.58482753 38.71758339 24.36129665 33.64203133 23 27 C20.82924864 22.25481369 18.08498168 19.64295211 13.625 17 C8.01507281 15.45243388 3.50852154 14.947686 -1.8125 17.625 C-5.33020981 20.24603868 -6.59736576 21.87460517 -8 26 C-8.5900252 30.04588711 -8.19788227 31.64517662 -6.1875 35.25 C-4.11320337 38.14542239 -4.11320337 38.14542239 -1 40 C2.61413643 40.32855786 5.09896279 40.45051861 8.375 38.8125 C10.36774166 36.58982661 10.68306247 34.93167219 11 32 C10.154375 32.845625 9.30875 33.69125 8.4375 34.5625 C5.70380821 36.83625786 5.10852358 36.99632123 1.3125 37.125 C-2 36 -2 36 -3.9375 33.75 C-5.08787344 30.77256286 -5.55025554 29.14431736 -5 26 C-2.75313421 22.54945611 -0.81164984 20.52186752 3 19 C7.6610757 18.66948736 11.74230063 19.37086709 15.4375 22.3125 C18.79617393 25.83501168 19.81870259 27.42875576 20.375 32.25 C19.77728217 38.22717827 17.62313455 42.98391883 13.0625 47 C7.92175779 50.28250855 1.83541106 49.8056632 -4 49 C-9.88113393 46.26947353 -14.519252 41.02778242 -17 35 C-18.15967944 27.39517904 -17.18297373 21.51066751 -12.8515625 15.13671875 C-10.0605208 11.91583307 -6.99360418 9.53600161 -3 8 C-1.68 8 -0.36 8 1 8 C0.67 5.36 0.34 2.72 0 0 Z " fill="#080807" transform="translate(632,402)"/>
<path d="M0 0 C42.57 0 85.14 0 129 0 C129 4.95 129 9.9 129 15 C86.43 15 43.86 15 0 15 C0 10.05 0 5.1 0 0 Z " fill="#040404" transform="translate(448,708)"/>
<path d="M0 0 C42.24 0 84.48 0 128 0 C128 4.95 128 9.9 128 15 C85.76 15 43.52 15 0 15 C0 10.05 0 5.1 0 0 Z " fill="#030303" transform="translate(275,708)"/>
<path d="M0 0 C42.24 0 84.48 0 128 0 C128 4.95 128 9.9 128 15 C85.76 15 43.52 15 0 15 C0 10.05 0 5.1 0 0 Z " fill="#030303" transform="translate(621,708)"/>
<path d="M0 0 C35.31 0 70.62 0 107 0 C107 3.3 107 6.6 107 10 C71.69 10 36.38 10 0 10 C0 6.7 0 3.4 0 0 Z " fill="#050505" transform="translate(632,693)"/>
<path d="M0 0 C35.31 0 70.62 0 107 0 C107 3.3 107 6.6 107 10 C71.69 10 36.38 10 0 10 C0 6.7 0 3.4 0 0 Z " fill="#040404" transform="translate(459,693)"/>
<path d="M0 0 C35.31 0 70.62 0 107 0 C107 3.3 107 6.6 107 10 C71.69 10 36.38 10 0 10 C0 6.7 0 3.4 0 0 Z " fill="#050505" transform="translate(286,693)"/>
<path d="M0 0 C0.66 0 1.32 0 2 0 C3.86603875 40.76478784 5.37744453 81.53561361 6.58730698 122.32524872 C6.68657159 125.65634466 6.78749379 128.98738673 6.88882446 132.31842041 C7.60289023 155.88279019 8.25908302 179.42268573 8 203 C6.68 203 5.36 203 4 203 C2.89849499 186.08198809 2.61606092 169.14552902 2.29281878 152.19924259 C2.21332917 148.05912116 2.130701 143.919062 2.04859924 139.7789917 C1.91109556 132.81966315 1.77619419 125.86028778 1.64282227 118.90087891 C1.49030713 110.94452563 1.33339594 102.98826828 1.17412895 95.03204751 C1.01914494 87.28315555 0.86768196 79.53419812 0.7176075 71.78520966 C0.65456962 68.5340717 0.59034109 65.28296089 0.52502251 62.03186798 C0.11092451 41.35154996 -0.08952997 20.68463806 0 0 Z " fill="#E2E1E1" transform="translate(707,470)"/>
<path d="M0 0 C0.66 0 1.32 0 2 0 C2.22834023 29.64956882 1.64490929 59.29454119 1.16577756 88.93900704 C1.08533518 93.92659552 1.00700023 98.91421378 0.92993164 103.90185547 C0.42445303 136.60466014 -0.13422549 169.30436326 -1 202 C-2.32 202 -3.64 202 -5 202 C-5.34534081 164.96404057 -4.42969945 128.00054821 -3.27501333 90.98850703 C-3.05915633 84.05518507 -2.85253637 77.1216015 -2.6467371 70.18797493 C-2.44658248 63.44677096 -2.24245293 56.70568812 -2.03765178 49.96462393 C-1.97357564 47.85064473 -1.91000893 45.73665068 -1.84651375 43.62265396 C-1.40787633 29.06996777 -0.92821012 14.53072847 0 0 Z " fill="#E0E0E0" transform="translate(662,471)"/>
<path d="M0 0 C0.66 0 1.32 0 2 0 C2.0310224 16.60415799 2.05112394 33.20831686 2.0625 49.8125 C2.06335602 51.05297718 2.06421204 52.29345436 2.06509399 53.57152176 C2.08738545 90.19649709 1.94123388 126.81508764 1.5 163.4375 C1.48804218 164.43064335 1.47608437 165.4237867 1.46376419 166.4470253 C1.3201049 178.29816792 1.16615243 190.14915133 1 202 C-0.32 202 -1.64 202 -3 202 C-3.14231105 164.52744623 -2.81370093 127.08077482 -2.16577756 89.6135391 C-2.07201634 84.17068492 -1.98391493 78.72775 -1.89716727 73.28478009 C-1.80074407 67.24107799 -1.70077288 61.19744032 -1.59924126 55.15382195 C-1.55738955 52.64773821 -1.51631522 50.14164135 -1.4761219 47.63553047 C-1.21868922 31.7438182 -0.74737497 15.87650116 0 0 Z " fill="#E0DFDF" transform="translate(327,471)"/>
<path d="M0 0 C0.66 0 1.32 0 2 0 C2.82378941 24.39634013 3.14176673 48.76112733 3.10139394 73.17041111 C3.09498629 77.72662248 3.09454326 82.28283511 3.09336853 86.83905029 C3.09030505 95.40143864 3.0821616 103.96381367 3.07201904 112.52619624 C3.06069962 122.30193392 3.05530828 132.07767237 3.05032361 141.85341501 C3.03997256 161.90228401 3.02247368 181.95114115 3 202 C1.68 202 0.36 202 -1 202 C-1.03188368 188.95834459 -1.05140219 175.91668927 -1.0625 162.875 C-1.06335602 161.87645493 -1.06421204 160.87790985 -1.06509399 159.84910583 C-1.09287335 122.98052815 -0.85665054 86.11674154 -0.5 49.25 C-0.48804218 48.01339378 -0.47608437 46.77678757 -0.46376419 45.50270844 C-0.31643488 30.33506247 -0.16188519 15.16749739 0 0 Z " fill="#E3E3E3" transform="translate(338,471)"/>
<path d="M0 0 C0.66 0 1.32 0 2 0 C5.30636493 154.41052286 5.30636493 154.41052286 5 203 C3.68 203 2.36 203 1 203 C-0.08151219 162.20730857 -0.12594709 121.43212403 -0.07202661 80.6285609 C-0.06058478 71.80782203 -0.05528543 62.98708212 -0.05032361 54.16633761 C-0.04003855 36.11088331 -0.02260236 18.0554429 0 0 Z " fill="#DEDDDE" transform="translate(523,470)"/>
<path d="M0 0 C0.66 0 1.32 0 2 0 C2.31589963 9.31238679 2.62785712 18.62490331 2.9375 27.9375 C2.96054577 28.62956669 2.98359154 29.32163338 3.00733566 30.03467178 C3.6604696 49.66471541 4.26516613 69.2940659 4.65795898 88.93139648 C4.82886775 97.1169807 5.14635549 105.27686044 5.62585449 113.4503479 C6.04737106 120.6513213 6.34124645 127.852451 6.5625 135.0625 C6.58367889 135.74358826 6.60485779 136.42467651 6.62667847 137.12640381 C7.28605609 159.07590827 7.08802101 181.04349723 7 203 C5.68 203 4.36 203 3 203 C1.95352695 160.41512357 0.94492224 117.83054192 0.40580368 75.23575592 C0.37561236 72.86067316 0.34451988 70.48560361 0.31326294 68.11053467 C0.01766822 45.40645334 -0.04777676 22.70584325 0 0 Z " fill="#E3E2E3" transform="translate(361,470)"/>
<path d="M0 0 C0.33 0 0.66 0 1 0 C1.26841209 45.54119346 0.94955493 91.05856351 0.13027191 136.59356689 C0.06252587 140.37355649 -0.00362098 144.15357153 -0.06951904 147.93359375 C-0.17495849 153.94087986 -0.28559915 159.94804833 -0.40063286 165.95515823 C-0.44293446 168.1823873 -0.4840569 170.40963912 -0.52391243 172.6369133 C-0.57952574 175.70904542 -0.64045443 178.78102708 -0.70288086 181.85302734 C-0.71798643 182.73883987 -0.733092 183.6246524 -0.74865532 184.53730774 C-0.87560782 190.39795575 -1.33734805 196.17600589 -2 202 C-3.32 202 -4.64 202 -6 202 C-6.02996562 198.06251712 -6.0471103 194.12506467 -6.0625 190.1875 C-6.07087891 189.10662109 -6.07925781 188.02574219 -6.08789062 186.91210938 C-6.10706594 180.29662458 -5.90681039 173.73836084 -5.52294922 167.13598633 C-5.05338313 158.62561581 -4.76680688 150.12233808 -4.58475113 141.60144424 C-4.53291939 139.1766029 -4.47750794 136.75186291 -4.4213562 134.32711792 C-4.34102377 130.84642151 -4.26199571 127.36569943 -4.18405151 123.88494873 C-3.97852941 114.7381801 -3.76030214 105.59171299 -3.5390625 96.4453125 C-3.51697409 95.53159504 -3.49488567 94.61787758 -3.47212791 93.67647171 C-3.04828946 76.23950077 -2.53169424 58.80697911 -1.9375 41.375 C-1.897388 40.17576904 -1.857276 38.97653809 -1.81594849 37.7409668 C-1.39173282 25.14631949 -0.89557284 12.57097113 0 0 Z " fill="#DCDBDB" transform="translate(489,471)"/>
<path d="M0 0 C0.33 0 0.66 0 1 0 C1.70622197 9.13820332 2.2307694 18.26144344 2.52734375 27.421875 C2.56866928 28.6683783 2.60999481 29.91488159 2.65257263 31.19915771 C3.0858542 44.83797842 3.34036373 58.47908066 3.53242874 72.1231308 C3.56303974 74.28817461 3.59482143 76.45319929 3.62667847 78.6182251 C4.22237383 119.74273873 4.09517784 160.87238136 4 202 C2.68 202 1.36 202 0 202 C0 135.34 0 68.68 0 0 Z " fill="#D7D6D6" transform="translate(350,471)"/>
<path d="M0 0 C0.66 0 1.32 0 2 0 C2 66.66 2 133.32 2 202 C0.68 202 -0.64 202 -2 202 C-2.06572196 191.39588804 -2.10337096 180.79178656 -2.125 170.1875 C-2.12671204 169.35448742 -2.12842407 168.52147484 -2.13018799 167.66321945 C-2.1968599 130.62325232 -1.63179156 93.59565867 -1 56.5625 C-0.98805257 55.86124732 -0.97610514 55.15999465 -0.96379566 54.43749189 C-0.65439947 36.29144855 -0.33334437 18.14561993 0 0 Z " fill="#CDCCCD" transform="translate(673,471)"/>
<path d="M0 0 C0.33 0 0.66 0 1 0 C1.2507355 40.80563901 0.99416439 81.57831517 0.0625 122.375 C0.04061867 123.33853897 0.01873734 124.30207794 -0.00380707 125.29481506 C-0.58623342 150.86544866 -1.26662527 176.43328155 -2 202 C-3.32 202 -4.64 202 -6 202 C-6.02525524 197.48747077 -6.04311365 192.97498205 -6.05493164 188.46240234 C-6.05987289 186.93635337 -6.06662711 185.41030888 -6.07543945 183.88427734 C-6.08796567 181.65461093 -6.0933297 179.42500841 -6.09765625 177.1953125 C-6.10281754 176.54450714 -6.10797882 175.89370178 -6.11329651 175.22317505 C-6.11386962 170.06845315 -5.8332445 164.94171456 -5.52319336 159.79785156 C-4.95538796 150.21008495 -4.74800403 140.62770165 -4.58314514 131.02570724 C-4.4917083 125.76337746 -4.38693974 120.50131809 -4.28125 115.23925781 C-4.2593586 114.14921888 -4.23746719 113.05917995 -4.21491241 111.93610954 C-3.84181934 93.85152592 -3.26711056 75.77214793 -2.69775391 57.69287109 C-2.52853912 52.31416108 -2.36549732 46.93528096 -2.2037735 41.55634117 C-2.07617197 37.34070008 -1.94487209 33.12518031 -1.81248474 28.90968704 C-1.75060698 26.9218502 -1.69000358 24.93397323 -1.63075256 22.94605637 C-1.5487165 20.20787809 -1.46154293 17.46990966 -1.37304688 14.73193359 C-1.35016098 13.93124451 -1.32727509 13.13055542 -1.30369568 12.30560303 C-1.16258359 8.12000229 -0.80107999 4.12443367 0 0 Z " fill="#DEDDDD" transform="translate(316,471)"/>
<path d="M0 0 C0.66 0 1.32 0 2 0 C2.03090831 17.33332512 2.05108483 34.666651 2.0625 52 C2.06378403 53.93583136 2.06378403 53.93583136 2.06509399 55.91077042 C2.08661108 92.67252982 1.96115144 129.42832949 1.5 166.1875 C1.48804218 167.14134583 1.47608437 168.09519165 1.46376419 169.07794189 C1.32097132 180.38546635 1.16722615 191.69281034 1 203 C-0.32 203 -1.64 203 -3 203 C-3.05999316 182.72723578 -2.91450782 162.46181208 -2.65604782 142.19099808 C-2.62455346 139.71489283 -2.59376394 137.23877945 -2.5630188 134.76266479 C-1.99958222 89.83652351 -0.99850517 44.91820098 0 0 Z " fill="#F1F0F1" transform="translate(500,470)"/>
<path d="M0 0 C0.66 0 1.32 0 2 0 C2.70327678 22.14438924 3.18831064 44.28180314 3.4458313 66.43569946 C3.53866811 74.42076607 3.64095322 82.40571183 3.74609375 90.390625 C3.75633009 91.1716691 3.76656643 91.9527132 3.77711296 92.75742531 C3.94312028 105.27887057 4.21013427 117.79484655 4.5625 130.3125 C5.2328938 154.20348559 5.09507158 178.10189399 5 202 C3.68 202 2.36 202 1 202 C0.82437209 185.95842319 0.65840445 169.91675617 0.5 153.875 C0.48812275 152.67272263 0.4762455 151.47044525 0.46400833 150.23173523 C0.10452516 113.57066472 -0.09314815 76.91285175 -0.0625 40.25 C-0.06164398 39.21841515 -0.06078796 38.18683029 -0.05990601 37.12398529 C-0.04884511 24.7493043 -0.02930146 12.374651 0 0 Z " fill="#E5E4E5" transform="translate(696,471)"/>
<path d="M0 0 C0.66 0 1.32 0 2 0 C7.70127683 146.53979183 7.70127683 146.53979183 7 202 C5.68 202 4.36 202 3 202 C2.99061433 201.43225074 2.98122866 200.86450148 2.97155857 200.27954769 C2.73805941 186.15685589 2.50403977 172.03417278 2.26950932 157.91149807 C2.15608171 151.08056964 2.0428129 144.24963866 1.92993164 137.41870117 C1.82070041 130.80943836 1.71108051 124.2001821 1.6011467 117.59093094 C1.55704774 114.93803691 1.51304439 112.28514129 1.46913528 109.63224411 C1.23203886 95.32498337 0.98547893 81.01801171 0.71044922 66.71142578 C0.68703555 65.48034749 0.66362188 64.2492692 0.63949871 62.98088551 C0.52994579 57.22119253 0.41825993 51.4615631 0.30152893 45.70201111 C0.00370342 30.46683833 -0.05045009 15.23786428 0 0 Z " fill="#ECEBEC" transform="translate(534,471)"/>
<path d="M0 0 C0.66 0 1.32 0 2 0 C2 66.99 2 133.98 2 203 C1.01 203 0.02 203 -1 203 C-1.0235545 181.69999811 -1.04108828 160.39999843 -1.05181217 139.09998608 C-1.05692791 129.20589444 -1.06387835 119.31181099 -1.07543945 109.41772461 C-1.08553296 100.77536094 -1.09188756 92.13300319 -1.09408849 83.49063379 C-1.09537123 78.93157071 -1.09829659 74.37252457 -1.10573006 69.81346703 C-1.14226153 46.5234118 -0.81563604 23.27649656 0 0 Z " fill="#F9F9F9" transform="translate(685,470)"/>
<path d="M0 0 C0.66 0 1.32 0 2 0 C2 66.99 2 133.98 2 203 C1.01 203 0.02 203 -1 203 C-1.02356296 181.84765267 -1.04109229 160.69530756 -1.05181217 139.54294968 C-1.05692618 129.71726793 -1.06387311 119.89159442 -1.07543945 110.06591797 C-1.08553847 101.48250835 -1.0918888 92.89910472 -1.09408849 84.31568933 C-1.09537034 79.78845238 -1.09828954 75.26123252 -1.10573006 70.73400116 C-1.14303441 47.13784519 -0.79737012 23.58326762 0 0 Z " fill="#EBEBEB" transform="translate(512,470)"/>
<path d="M0 0 C16.17 0 32.34 0 49 0 C49 7.26 49 14.52 49 22 C47.35 22 45.7 22 44 22 C44 16.39 44 10.78 44 5 C40.7 5 37.4 5 34 5 C34 10.61 34 16.22 34 22 C32.68 22 31.36 22 30 22 C30 16.39 30 10.78 30 5 C26.37 5 22.74 5 19 5 C19 10.61 19 16.22 19 22 C17.35 22 15.7 22 14 22 C14 16.39 14 10.78 14 5 C10.7 5 7.4 5 4 5 C4 10.61 4 16.22 4 22 C2.68 22 1.36 22 0 22 C0 14.74 0 7.48 0 0 Z " fill="#E9E8E7" transform="translate(661,425)"/>
<path d="M0 0 C16.17 0 32.34 0 49 0 C49 7.26 49 14.52 49 22 C47.68 22 46.36 22 45 22 C45 16.39 45 10.78 45 5 C41.37 5 37.74 5 34 5 C34 10.61 34 16.22 34 22 C32.68 22 31.36 22 30 22 C30 16.39 30 10.78 30 5 C26.37 5 22.74 5 19 5 C19 10.61 19 16.22 19 22 C17.35 22 15.7 22 14 22 C14 16.39 14 10.78 14 5 C10.7 5 7.4 5 4 5 C4 10.61 4 16.22 4 22 C2.68 22 1.36 22 0 22 C0 14.74 0 7.48 0 0 Z " fill="#EEEEEF" transform="translate(488,425)"/>
<path d="M0 0 C16.17 0 32.34 0 49 0 C49 7.26 49 14.52 49 22 C47.68 22 46.36 22 45 22 C45 16.39 45 10.78 45 5 C41.7 5 38.4 5 35 5 C35 10.61 35 16.22 35 22 C33.35 22 31.7 22 30 22 C30 16.39 30 10.78 30 5 C26.37 5 22.74 5 19 5 C19 10.61 19 16.22 19 22 C17.68 22 16.36 22 15 22 C15 16.39 15 10.78 15 5 C11.37 5 7.74 5 4 5 C4 10.61 4 16.22 4 22 C2.68 22 1.36 22 0 22 C0 14.74 0 7.48 0 0 Z " fill="#EBEAEA" transform="translate(315,425)"/>
<path d="M0 0 C3.51520834 2.3707219 5.79390381 5.02530762 7.6875 8.8125 C8.3201744 13.33160283 8.46044479 17.47503178 5.75 21.3125 C2.31322231 24.11803281 0.26870256 24.88522427 -4.0859375 25.1328125 C-7.92570898 24.58042432 -9.68793155 22.57166171 -12.3125 19.8125 C-11.9825 18.4925 -11.6525 17.1725 -11.3125 15.8125 C-10.6525 15.8125 -9.9925 15.8125 -9.3125 15.8125 C-7.6875 17.8125 -7.6875 17.8125 -6.3125 19.8125 C-2.88019552 19.54856499 -2.88019552 19.54856499 0.6875 18.8125 C3.03299674 15.29425489 3.26741403 13.95474306 2.6875 9.8125 C-0.2957444 6.27971058 -2.41410425 4.02822679 -7.0625 3.5 C-11.9088019 3.96599057 -14.65022008 6.31644808 -18.1875 9.5 C-19.98761161 13.20022942 -19.84458865 16.77982809 -19.3125 20.8125 C-17.94310976 24.17373058 -16.32254034 26.79743949 -14.3125 29.8125 C-15.9625 30.4725 -17.6125 31.1325 -19.3125 31.8125 C-24.20246106 24.71416943 -25.25648551 19.37347203 -24.3125 10.8125 C-22.45629627 5.64343042 -19.21364626 1.85717954 -14.26953125 -0.56640625 C-9.29581608 -2.14489071 -4.85521889 -1.74055017 0 0 Z " fill="#EBE6E2" transform="translate(739.3125,418.1875)"/>
<path d="M0 0 C4.52928797 2.57793466 7.73385625 5.71162398 9.875 10.5 C11.28760326 17.96952081 10.02198396 23.60305846 5.96875 29.953125 C5.6078125 30.46359375 5.246875 30.9740625 4.875 31.5 C3.225 31.17 1.575 30.84 -0.125 30.5 C0.143125 29.984375 0.41125 29.46875 0.6875 28.9375 C1.079375 28.133125 1.47125 27.32875 1.875 26.5 C2.41125 25.406875 2.9475 24.31375 3.5 23.1875 C4.9871487 19.19923758 5.4112603 16.71347379 4.875 12.5 C2.43964662 7.62929323 -0.00194102 5.34430123 -5.125 3.5 C-9.781879 2.92976992 -12.3780955 3.68982162 -16.125 6.5 C-18.48118542 9.38599388 -18.48118542 9.38599388 -17.9375 13 C-17.36275088 16.3711272 -17.36275088 16.3711272 -15.875 18.4375 C-13.39732514 19.94180259 -11.97566467 19.98669885 -9.125 19.5 C-6.93722534 17.5624994 -6.93722534 17.5624994 -5.125 15.5 C-4.465 15.5 -3.805 15.5 -3.125 15.5 C-2.8125 17.75 -2.8125 17.75 -3.125 20.5 C-5.8292706 23.53206097 -7.54461147 24.40502733 -11.5625 25.0625 C-16.31669768 24.31183721 -17.77842873 22.92439851 -21.125 19.5 C-23.47973493 15.70582578 -23.27537303 12.99011119 -22.66015625 8.68359375 C-21.56488492 4.21456693 -19.1009992 2.1432722 -15.375 -0.3125 C-9.85191304 -2.330551 -5.34042447 -2.29312119 0 0 Z " fill="#EFEDED" transform="translate(646.125,418.5)"/>
<path d="M0 0 C5.2287958 2.56506964 9.3776477 6.7552954 12 12 C12.93243738 20.22669432 12.44849958 25.86617067 7.3125 32.48828125 C6.879375 32.98714844 6.44625 33.48601562 6 34 C4.68 32.68 3.36 31.36 2 30 C2.639375 29.236875 3.27875 28.47375 3.9375 27.6875 C7.23661072 23.38865876 7.56936236 19.27954187 7 14 C5.22632032 9.89253127 2.83540858 7.30124515 -1 5 C-5.1101752 4.24966376 -8.15448523 4.60422713 -11.9375 6.375 C-14.09702406 7.83921726 -14.09702406 7.83921726 -15 10 C-15.45522009 15.22707974 -15.45522009 15.22707974 -13.9375 20.0625 C-10.75738793 21.60126391 -8.33749179 20.83437295 -5 20 C-3.07716915 18.58408173 -3.07716915 18.58408173 -2 17 C-1.67 18.65 -1.34 20.3 -1 22 C-3.82087704 24.73539592 -5.51554478 25.92072551 -9.4375 26.5625 C-14.13647787 25.82055613 -15.66711107 24.33288893 -19 21 C-20.88057482 17.23885037 -20.65340782 13.08532555 -20 9 C-15.45999651 0.88123154 -8.88699147 -1.12671841 0 0 Z " fill="#EFECEA" transform="translate(298,417)"/>
<path d="M0 0 C4.34468141 2.1723407 7.60032162 4.75441518 10 9 C10.78989219 13.8844354 10.76800889 17.68341333 8.25 22 C5.10343747 24.79694447 3.25667563 25.83957332 -0.9375 26.375 C-4.80452321 25.90148695 -6.37695406 24.85449117 -9 22 C-9.3125 19.25 -9.3125 19.25 -9 17 C-8.01 17 -7.02 17 -6 17 C-5.67 17.99 -5.34 18.98 -5 20 C-0.44507809 21.1136029 -0.44507809 21.1136029 3.9375 20.0625 C5.63235885 16.77247988 5.61792887 13.56386881 5 10 C3.34473479 7.19324595 2.05320844 6.30577019 -1.05859375 5.40234375 C-5.26218835 4.67220843 -7.46109746 4.74052841 -11.375 6.625 C-14.62998303 9.56998465 -16.68542677 11.64070081 -17.28125 16.109375 C-17.48507879 21.17112325 -16.70861483 24.59850089 -14 29 C-16.875 28.8125 -16.875 28.8125 -20 28 C-22.70358952 22.89922777 -22.66311422 17.62818193 -22 12 C-17.47873416 2.60967864 -10.07468806 -1.11596545 0 0 Z " fill="#E9E7E5" transform="translate(391,417)"/>
<path d="M0 0 C4.10488479 2.82780952 7.56757505 6.44765011 9.8125 10.9375 C10.39442025 17.68553677 10.00920909 22.94367046 6.8125 28.9375 C6.1525 28.6075 5.4925 28.2775 4.8125 27.9375 C4.8125 27.2775 4.8125 26.6175 4.8125 25.9375 C4.1525 25.6075 3.4925 25.2775 2.8125 24.9375 C3.1425 24.256875 3.4725 23.57625 3.8125 22.875 C5.0367831 19.27866838 5.21074113 16.72079077 4.8125 12.9375 C2.77399003 9.15169577 0.71127487 5.88688743 -3.1875 3.9375 C-8.49435731 3.43208502 -11.91864172 3.42196965 -16.1875 6.9375 C-18.14888387 9.52296056 -18.20048264 10.72545025 -18 14 C-17.34302319 16.85810863 -17.34302319 16.85810863 -16.0625 18.875 C-12.95844169 20.63396638 -10.52429452 19.78686588 -7.1875 18.9375 C-6.5275 17.9475 -5.8675 16.9575 -5.1875 15.9375 C-4.1975 16.2675 -3.2075 16.5975 -2.1875 16.9375 C-2.50598149 19.90999386 -3.22375819 20.97589103 -5.3125 23.1875 C-9.00253264 25.43360683 -10.92919522 25.60986391 -15.1875 24.9375 C-18.15478289 23.13854326 -20.61100428 21.09049143 -22.1875 17.9375 C-22.80297295 13.67593416 -23.13743604 9.63624556 -20.98828125 5.79296875 C-15.173187 -1.16463772 -8.66095294 -2.88698431 0 0 Z " fill="#F0EFEE" transform="translate(473.1875,418.0625)"/>
<path d="M0 0 C0.66 0 1.32 0 2 0 C2.39873603 8.88646071 2.79024903 17.77320584 3.17345428 26.66034985 C3.35175323 30.79056669 3.53220314 34.92066197 3.71826172 39.05053711 C4.46283248 55.61223795 5.13381922 72.15756439 5.15625 88.73828125 C5.15894897 89.95887741 5.16164795 91.17947357 5.16442871 92.4370575 C5.12966613 100.74066775 5.12966613 100.74066775 4 103 C3.84621148 104.95774069 3.75028537 106.92017352 3.68359375 108.8828125 C3.64169922 110.04941406 3.59980469 111.21601562 3.55664062 112.41796875 C3.51732422 113.64128906 3.47800781 114.86460937 3.4375 116.125 C3.39431641 117.35605469 3.35113281 118.58710937 3.30664062 119.85546875 C3.20031296 122.90352853 3.09828219 125.9516719 3 129 C2.67 129 2.34 129 2 129 C1.73532005 116.75786064 1.47432905 104.51564823 1.21769714 92.27333736 C1.09834785 86.58509994 0.97785694 80.8968921 0.85449219 75.20874023 C0.31154815 50.13682153 -0.19533991 25.07882645 0 0 Z " fill="#D7D6D7" transform="translate(707,470)"/>
<path d="M0 0 C2.96825861 2.96825861 2.46809958 6.29713453 2.61889648 10.29223633 C2.656566 11.13833623 2.69423552 11.98443613 2.73304653 12.85617542 C3.13132858 22.67709747 3.1256637 32.49705812 3.09765625 42.32421875 C3.09578474 44.29246484 3.09436431 46.2607114 3.09336853 48.22895813 C3.08960097 53.33986765 3.07982196 58.45074749 3.06866455 63.56164551 C3.05832451 68.8047648 3.05384429 74.04788902 3.04882812 79.29101562 C3.03819281 89.52735659 3.02118824 99.7636758 3 110 C2.01 110 1.02 110 0 110 C0 73.7 0 37.4 0 0 Z " fill="#F2F2F2" transform="translate(351,563)"/>
<path d="M0 0 C0.33 0 0.66 0 1 0 C1 36.63 1 73.26 1 111 C0.01 111 -0.98 111 -2 111 C-2.02354718 101.23507559 -2.04112453 91.47016148 -2.05181217 81.7052145 C-2.05695101 77.16715403 -2.06387662 72.62911347 -2.07543945 68.09106445 C-2.12012671 50.04592688 -2.11949543 32.01072122 -1.55859375 13.97265625 C-1.51960464 12.66219833 -1.48061554 11.35174042 -1.44044495 10.00157166 C-1.39878708 8.82035233 -1.35712921 7.639133 -1.31420898 6.42211914 C-1.27794907 5.39236465 -1.24168915 4.36261017 -1.20433044 3.301651 C-1 1 -1 1 0 0 Z " fill="#F6F6F6" transform="translate(673,562)"/>
<path d="M0 0 C0.66 0 1.32 0 2 0 C2.39775216 10.19037422 2.78925375 20.3809695 3.17345428 30.57186413 C3.35216738 35.30738504 3.53278321 40.04281503 3.71826172 44.77807617 C4.42628371 62.88711848 5.13163858 80.98818668 5.15625 99.11328125 C5.15894897 100.32332321 5.16164795 101.53336517 5.16442871 102.78007507 C5.12984237 110.87015763 5.12984237 110.87015763 4 112 C3.84285346 113.63256758 3.74914586 115.27135338 3.68359375 116.91015625 C3.64169922 117.89951172 3.59980469 118.88886719 3.55664062 119.90820312 C3.51732422 120.94912109 3.47800781 121.99003906 3.4375 123.0625 C3.39431641 124.10728516 3.35113281 125.15207031 3.30664062 126.22851562 C3.20018775 128.81886884 3.0981724 131.40932186 3 134 C2.67 134 2.34 134 2 134 C1.73614829 120.51530055 1.47518344 107.03054841 1.21769714 93.54572582 C1.09799247 87.28118893 0.97736958 81.01667279 0.85449219 74.75219727 C0.73548603 68.68322752 0.61909541 62.6142123 0.50436401 56.54516029 C0.46061434 54.25364778 0.4159919 51.96215172 0.37039185 49.67067528 C0.04171097 33.11202593 -0.05567624 16.56182282 0 0 Z " fill="#DDDDDD" transform="translate(534,471)"/>
<path d="M0 0 C4.8016274 1.66210179 8.72497022 4.35313065 11 9 C11.90202684 13.89447607 11.77504291 17.67135502 9.25 22 C6.13628898 24.76774313 4.25299118 25.80932743 0.125 26.4375 C-4.22042409 25.82914063 -5.85374074 23.99643739 -9 21 C-8.67 19.68 -8.34 18.36 -8 17 C-5 18 -5 18 -3 21 C0.06997072 21.39191116 2.11365285 21.47271848 4.875 20 C6.65948331 16.82758522 6.37310005 13.55880051 6 10 C5.67 9.01 5.34 8.02 5 7 C0.94670608 5.20900966 -2.59592909 4.44949114 -7 5 C-9.0360882 6.27754554 -11.04109119 7.60699818 -13 9 C-13.99 9 -14.98 9 -16 9 C-16.99 9.33 -17.98 9.66 -19 10 C-15.85025791 1.49569637 -8.24425565 -0.75200981 0 0 Z " fill="#E9E7E5" transform="translate(563,417)"/>
<path d="M0 0 C0.66 0 1.32 0 2 0 C2 37.95 2 75.9 2 115 C1.67 115 1.34 115 1 115 C0.67 103.12 0.34 91.24 0 79 C-0.33 79 -0.66 79 -1 79 C-1.1473641 52.64903267 -0.76501025 26.33995383 0 0 Z " fill="#D1D0D0" transform="translate(500,470)"/>
<path d="M0 0 C0.66 0 1.32 0 2 0 C2.91304023 23.08340547 3.09052307 46.15198129 3.0625 69.25 C3.06164398 69.96056801 3.06078796 70.67113602 3.05990601 71.40323639 C3.04843915 80.2688473 3.02825349 89.13442586 3 98 C2.67 98 2.34 98 2 98 C1.67 92.72 1.34 87.44 1 82 C0.67 82 0.34 82 0 82 C0 54.94 0 27.88 0 0 Z " fill="#D1D0D0" transform="translate(338,471)"/>
<path d="M0 0 C0.66 0 1.32 0 2 0 C2.02314123 8.83155316 2.0409242 17.66309594 2.05181217 26.49467278 C2.05703709 30.59525496 2.06412768 34.69581645 2.07543945 38.79638672 C2.08628218 42.75154957 2.09227979 46.70669248 2.09487724 50.66186905 C2.09672898 52.17298827 2.10034482 53.68410637 2.10573006 55.19521713 C2.11295886 57.30708958 2.11399016 59.41887895 2.11352539 61.53076172 C2.115746 62.73433319 2.11796661 63.93790466 2.12025452 65.177948 C2 68 2 68 1 70 C0.84876169 71.5195764 0.75118307 73.04472502 0.68359375 74.5703125 C0.62075195 75.91416016 0.62075195 75.91416016 0.55664062 77.28515625 C0.51732422 78.22230469 0.47800781 79.15945313 0.4375 80.125 C0.39431641 81.06988281 0.35113281 82.01476562 0.30664062 82.98828125 C0.20040928 85.32537092 0.09836824 87.6625683 0 90 C-0.33 90 -0.66 90 -1 90 C-1.1090322 59.98400297 -1.17673172 29.99727008 0 0 Z " fill="#C8C7C7" transform="translate(685,470)"/>
<path d="M0 0 C0.66 0 1.32 0 2 0 C2.07736206 22.68374534 1.87480795 45.35626849 1.53643799 68.03729248 C1.47441397 72.22926439 1.41507872 76.42127444 1.35546875 80.61328125 C1.23950379 88.74222546 1.12073547 96.87112524 1 105 C0.67 105 0.34 105 0 105 C-0.33 92.13 -0.66 79.26 -1 66 C-1.33 66 -1.66 66 -2 66 C-2.19061125 51.97948332 -1.59402257 38.00537767 -1 24 C-0.9033455 21.66407491 -0.80698915 19.32813746 -0.7109375 16.9921875 C-0.47739148 11.32797812 -0.24018036 5.66393175 0 0 Z " fill="#BEBDBD" transform="translate(662,471)"/>
<path d="M0 0 C0.66 0 1.32 0 2 0 C2.14677373 4.45747148 2.28886841 8.91506457 2.42724609 13.37280273 C2.47456814 14.87837416 2.52301036 16.38391093 2.57275391 17.8894043 C3.30169621 40.01801001 2.93108558 62.12291066 2.53643799 84.25567627 C2.47477852 87.736183 2.41522684 91.21672582 2.35546875 94.69726562 C2.23897806 101.46487933 2.12025267 108.23245212 2 115 C1.67 115 1.34 115 1 115 C0.86659223 105.46911937 0.73608794 95.93820394 0.60884857 86.40723896 C0.54962203 81.97695846 0.48955826 77.54669334 0.42724609 73.11645508 C0.08522059 48.74270911 -0.07056624 24.37615721 0 0 Z " fill="#C1C0C0" transform="translate(361,470)"/>
<path d="M0 0 C0.66 0 1.32 0 2 0 C3.93573457 29.31255211 2.71820748 58.66046057 2 88 C1.67 88 1.34 88 1 88 C-0.20994726 25.68139427 -0.20994726 25.68139427 0 0 Z " fill="#B9B9B9" transform="translate(707,470)"/>
<path d="M0 0 C2.0625 0.4375 2.0625 0.4375 4 1 C3.79375 2.2375 3.5875 3.475 3.375 4.75 C3.08425942 7.23891557 2.99291349 8.96545326 3.5 11.4375 C5.06016843 13.32066349 5.06016843 13.32066349 8.375 14 C12.03970714 14.38800783 12.03970714 14.38800783 14.3125 12.0625 C14.869375 11.381875 15.42625 10.70125 16 10 C16.66 10 17.32 10 18 10 C18.3125 12.25 18.3125 12.25 18 15 C15.2957294 18.03206097 13.58038853 18.90502733 9.5625 19.5625 C4.80830232 18.81183721 3.34657127 17.42439851 0 14 C-1.95969813 10.89929343 -2.1826968 8.92206707 -1.6875 5.3125 C-1.58824219 4.52488281 -1.48898437 3.73726563 -1.38671875 2.92578125 C-1 1 -1 1 0 0 Z " fill="#E5E3E0" transform="translate(625,424)"/>
<path d="M0 0 C0.99 0.33 1.98 0.66 3 1 C2.95875 2.2375 2.9175 3.475 2.875 4.75 C2.80870841 9.24992612 2.80870841 9.24992612 5 13 C8.36760187 14.1716367 8.36760187 14.1716367 12 14 C14.46172153 12.207809 14.46172153 12.207809 16 10 C16.99 10.33 17.98 10.66 19 11 C18.68151851 13.97249386 17.96374181 15.03839103 15.875 17.25 C12.18496736 19.49610683 10.25830478 19.67236391 6 19 C3.03271711 17.20104326 0.57649572 15.15299143 -1 12 C-1.0955931 10.33555539 -1.12984645 8.66718037 -1.125 7 C-1.12757813 6.113125 -1.13015625 5.22625 -1.1328125 4.3125 C-1 2 -1 2 0 0 Z " fill="#EBE9E8" transform="translate(452,424)"/>
<path d="M0 0 C0.66 0 1.32 0 2 0 C2.625 1.8125 2.625 1.8125 3 4 C2.01 5.485 2.01 5.485 1 7 C-0.0642139 14.25600387 1.99987259 18.99980888 6 25 C4.35 25.66 2.7 26.32 1 27 C-3.89751284 19.89070716 -4.84644505 14.56602391 -4 6 C-2.96641031 3.34009857 -1.99498671 2.11233887 0 0 Z " fill="#EFEDEB" transform="translate(719,423)"/>
<path d="M0 0 C0.66 0 1.32 0 2 0 C2.625 1.75 2.625 1.75 3 4 C2.68417969 4.61617188 2.36835938 5.23234375 2.04296875 5.8671875 C0.28594895 9.46019428 0.53369221 13.0870694 1 17 C2.34746524 20.45346148 2.34746524 20.45346148 4 23 C1.125 22.8125 1.125 22.8125 -2 22 C-4.6960643 16.91342536 -4.6894494 11.61408797 -4 6 C-2.95009094 3.40494177 -1.92991819 2.10020509 0 0 Z " fill="#F2F0EF" transform="translate(373,423)"/>
<path d="M0 0 C0.99 0.33 1.98 0.66 3 1 C3 6.28 3 11.56 3 17 C1.68 17 0.36 17 -1 17 C-1.02691685 14.54159395 -1.04679802 12.08348118 -1.0625 9.625 C-1.07087891 8.92632812 -1.07925781 8.22765625 -1.08789062 7.5078125 C-1.11328125 2.2265625 -1.11328125 2.2265625 0 0 Z " fill="#F7F7F7" transform="translate(692,430)"/>
<path d="M0 0 C0.99 0 1.98 0 3 0 C3 6.93 3 13.86 3 21 C1.68 21 0.36 21 -1 21 C-0.67 14.07 -0.34 7.14 0 0 Z " fill="#FBF9F8" transform="translate(361,426)"/>
<path d="M0 0 C1.22589844 0.01353516 1.22589844 0.01353516 2.4765625 0.02734375 C3.41628906 0.04474609 3.41628906 0.04474609 4.375 0.0625 C4.375 0.3925 4.375 0.7225 4.375 1.0625 C2.395 1.3925 0.415 1.7225 -1.625 2.0625 C-1.955 3.0525 -2.285 4.0425 -2.625 5.0625 C-7.88214286 9.0625 -7.88214286 9.0625 -11.625 9.0625 C-12.615 9.3925 -13.605 9.7225 -14.625 10.0625 C-12.28110538 3.73398453 -6.59859914 -0.0942657 0 0 Z " fill="#E6E3E3" transform="translate(558.625,416.9375)"/>
<path d="M0 0 C7.66816143 -0.76681614 7.66816143 -0.76681614 10.93359375 1.11328125 C12.5625 2.5 12.5625 2.5 15 5 C14.01 5.33 13.02 5.66 12 6 C11.67 6.66 11.34 7.32 11 8 C11 7.34 11 6.68 11 6 C5.06 4.515 5.06 4.515 -1 3 C-0.67 2.01 -0.34 1.02 0 0 Z " fill="#F3F3F2" transform="translate(557,418)"/>
<path d="M0 0 C0.33 0 0.66 0 1 0 C1 5.28 1 10.56 1 16 C0.01 16 -0.98 16 -2 16 C-2.05384521 13.70858714 -2.09272087 11.41681812 -2.125 9.125 C-2.14820313 7.84882813 -2.17140625 6.57265625 -2.1953125 5.2578125 C-2 2 -2 2 0 0 Z " fill="#F9F9F9" transform="translate(348,431)"/>
<path d="M0 0 C0.99 0 1.98 0 3 0 C3.33 0.99 3.66 1.98 4 3 C6.50447516 4.21869929 6.50447516 4.21869929 9 5 C8.01 5.33 7.02 5.66 6 6 C6 6.66 6 7.32 6 8 C7.65 8 9.3 8 11 8 C11 8.33 11 8.66 11 9 C7.26770881 9.34718988 5.40042406 9.23503152 2.125 7.3125 C0 5 0 5 -0.3125 2.25 C-0.209375 1.5075 -0.10625 0.765 0 0 Z " fill="#DFDEDB" transform="translate(382,434)"/>
<path d="M0 0 C0.66 1.32 1.32 2.64 2 4 C-0.31 5.32 -2.62 6.64 -5 8 C-5.33 7.01 -5.66 6.02 -6 5 C-6.66 4.67 -7.32 4.34 -8 4 C-2.25 0 -2.25 0 0 0 Z " fill="#E5E0DE" transform="translate(727,418)"/>
<path d="M0 0 C-1.125 1.5 -1.125 1.5 -3 3 C-6.1875 3.1875 -6.1875 3.1875 -9 3 C-9.33 2.01 -9.66 1.02 -10 0 C-6.30458414 -0.95024979 -3.69541586 -0.95024979 0 0 Z " fill="#F0EEEB" transform="translate(569,440)"/>
<path d="M0 0 C0.99 0.33 1.98 0.66 3 1 C2.67 3.97 2.34 6.94 2 10 C1.34 8.68 0.68 7.36 0 6 C-0.99 6.495 -0.99 6.495 -2 7 C-1.125 1.125 -1.125 1.125 0 0 Z " fill="#DFD9D7" transform="translate(280,423)"/>
<path d="M0 0 C2.4375 0.6875 2.4375 0.6875 5 2 C5.8125 4.625 5.8125 4.625 6 7 C3 7 3 7 1.3125 5.75 C0 4 0 4 0 0 Z " fill="#E7E1DF" transform="translate(298,418)"/>
<path d="M0 0 C0.66 0 1.32 0 2 0 C2.125 2.375 2.125 2.375 2 5 C1.34 5.66 0.68 6.32 0 7 C-0.99 7 -1.98 7 -3 7 C-2.25 2.25 -2.25 2.25 0 0 Z " fill="#EAE8E8" transform="translate(641,434)"/>
<path d="M0 0 C1.8125 0.1875 1.8125 0.1875 4 1 C5.75 3.5625 5.75 3.5625 7 6 C5.68 6.33 4.36 6.66 3 7 C0 2.25 0 2.25 0 0 Z " fill="#F9F4F1" transform="translate(647,421)"/>
<path d="M0 0 C0.99 0 1.98 0 3 0 C3.66 1.65 4.32 3.3 5 5 C3.35 4.67 1.7 4.34 0 4 C0 2.68 0 1.36 0 0 Z " fill="#F4F2F0" transform="translate(626,435)"/>
<path d="M0 0 C-0.33 0.66 -0.66 1.32 -1 2 C-3.31 2 -5.62 2 -8 2 C-8 1.34 -8 0.68 -8 0 C-4.71023192 -1.09658936 -3.28696233 -0.79953138 0 0 Z " fill="#FAF8F3" transform="translate(396,440)"/>
</svg>
